<?xml version="1.0" standalone="no"?>
<!DOCTYPE svg PUBLIC "-//W3C//DTD SVG 20010904//EN"
 "http://www.w3.org/TR/2001/REC-SVG-20010904/DTD/svg10.dtd">
<svg version="1.0" xmlns="http://www.w3.org/2000/svg"
 width="776.000000pt" height="776.000000pt" viewBox="0 0 776.000000 776.000000"
 preserveAspectRatio="xMidYMid meet">
<metadata>
Created by potrace 1.14, written by Peter Selinger 2001-2017
</metadata>
<g transform="translate(0.000000,776.000000) scale(0.100000,-0.100000)"
fill="#000000" stroke="none">
<path d="M3638 7755 c-1 -2 -39 -6 -83 -9 -124 -9 -361 -42 -445 -62 -14 -3
-36 -8 -50 -10 -72 -13 -321 -83 -430 -121 -69 -24 -133 -45 -142 -48 -10 -2
-30 -10 -45 -19 -16 -8 -59 -27 -98 -42 -73 -30 -324 -155 -385 -192 -19 -12
-42 -25 -50 -29 -60 -27 -388 -255 -471 -327 -19 -17 -57 -49 -85 -71 -65 -52
-355 -342 -425 -425 -105 -125 -196 -246 -292 -391 -53 -81 -97 -149 -97 -153
0 -3 -12 -25 -26 -47 -91 -144 -230 -451 -307 -679 -46 -135 -114 -382 -122
-439 -2 -17 -6 -38 -9 -48 -6 -20 -14 -61 -22 -113 -2 -19 -7 -46 -9 -60 -8
-41 -23 -170 -32 -265 -15 -174 -8 -624 12 -770 2 -16 6 -48 9 -70 3 -22 10
-71 17 -110 6 -38 13 -80 14 -92 2 -12 7 -36 11 -55 4 -18 8 -35 9 -38 1 -3 7
-32 14 -65 7 -33 19 -85 28 -115 148 -543 386 -1011 740 -1455 91 -115 367
-398 488 -502 156 -135 405 -310 605 -426 103 -60 378 -191 507 -241 234 -91
477 -160 703 -201 47 -8 96 -17 110 -20 36 -6 191 -24 290 -33 169 -14 606 -7
755 13 17 2 50 7 75 10 51 6 96 13 200 31 20 4 193 43 260 59 57 13 173 49
275 84 66 23 125 43 130 45 6 1 28 10 50 20 22 9 74 31 115 48 170 71 439 218
603 330 106 73 157 109 173 123 7 6 24 19 40 30 29 21 70 54 164 133 79 66
336 323 414 415 76 88 240 304 276 363 13 21 28 40 32 42 4 2 8 10 8 18 0 8 5
14 10 14 6 0 10 4 10 9 0 5 23 46 50 90 211 340 394 814 475 1231 21 106 22
109 29 165 4 28 9 61 11 75 5 32 13 103 22 210 16 173 7 649 -12 752 -3 12 -7
44 -10 72 -5 57 -30 200 -50 296 -3 14 -7 36 -10 50 -3 13 -21 85 -41 160
-116 428 -309 839 -569 1210 -49 69 -91 127 -95 130 -3 3 -19 23 -36 45 -16
22 -37 49 -47 60 -10 11 -42 48 -70 82 -56 68 -283 294 -387 387 -36 32 -119
98 -185 148 -66 49 -127 95 -135 101 -23 18 -122 82 -198 129 -316 194 -681
349 -1042 442 -74 19 -148 38 -165 41 -123 24 -317 55 -374 60 -37 3 -83 8
-102 11 -37 6 -575 15 -581 9z"/>
</g>
</svg>
